<?xml version="1.0" encoding="UTF-8" standalone="no"?>
<svg
   xmlns:dc="http://purl.org/dc/elements/1.1/"
   xmlns:cc="http://creativecommons.org/ns#"
   xmlns:rdf="http://www.w3.org/1999/02/22-rdf-syntax-ns#"
   xmlns:svg="http://www.w3.org/2000/svg"
   xmlns="http://www.w3.org/2000/svg"
   xmlns:sodipodi="http://sodipodi.sourceforge.net/DTD/sodipodi-0.dtd"
   xmlns:inkscape="http://www.inkscape.org/namespaces/inkscape"
   height="108"
   viewBox="0 0 80.999998 80.999998"
   width="108"
   version="1.1"
   id="svg64"
   sodipodi:docname="icon.svg"
   inkscape:version="0.92.3 (2405546, 2018-03-11)">
  <metadata
     id="metadata70">
    <rdf:RDF>
      <cc:Work
         rdf:about="">
        <dc:format>image/svg+xml</dc:format>
        <dc:type
           rdf:resource="http://purl.org/dc/dcmitype/StillImage" />
        <dc:title></dc:title>
      </cc:Work>
    </rdf:RDF>
  </metadata>
  <defs
     id="defs68" />
  <sodipodi:namedview
     pagecolor="#ffffff"
     bordercolor="#666666"
     borderopacity="1"
     objecttolerance="10"
     gridtolerance="10"
     guidetolerance="10"
     inkscape:pageopacity="0"
     inkscape:pageshadow="2"
     inkscape:window-width="1807"
     inkscape:window-height="1062"
     id="namedview66"
     showgrid="false"
     units="px"
     inkscape:zoom="8.9272748"
     inkscape:cx="74.397462"
     inkscape:cy="47.252177"
     inkscape:window-x="113"
     inkscape:window-y="0"
     inkscape:window-maximized="1"
     inkscape:current-layer="svg64" />
  <rect
     style="fill:#ffffff;fill-opacity:1;stroke-width:0.75"
     id="rect880"
     width="81"
     height="81"
     x="1.4210855e-14"
     y="-2e-06" />
  <path
     d="M 56.18598,34.945043 H 24.814017 c -0.205044,-0.0013 -0.394032,-0.110814 -0.496685,-0.28822 -0.102917,-0.177143 -0.104233,-0.395611 -0.0037,-0.574334 l 1.811439,-3.162517 h 28.749824 l 1.81144,3.162517 c 0.100548,0.178723 0.09923,0.397191 -0.0037,0.574334 -0.102654,0.177406 -0.291642,0.286903 -0.496686,0.28822 z m 0,0"
     id="path2"
     inkscape:connector-curvature="0"
     style="fill:#6d4122;stroke-width:0.06738281" />
  <path
     d="M 56.18598,42.251291 H 24.814017 c -0.205044,-0.0013 -0.394032,-0.111077 -0.496685,-0.28822 -0.102917,-0.177406 -0.104233,-0.395874 -0.0037,-0.574333 l 1.811439,-3.162518 h 28.749824 l 1.81144,3.162518 c 0.100548,0.178459 0.09923,0.396927 -0.0037,0.574333 -0.102654,0.177143 -0.291642,0.286903 -0.496686,0.28822 z m 0,0"
     id="path6"
     inkscape:connector-curvature="0"
     style="fill:#6d4122;stroke-width:0.06738281" />
  <path
     d="M 56.18598,49.881107 H 24.814017 c -0.205044,-0.0013 -0.394032,-0.110813 -0.496685,-0.288219 -0.102917,-0.177143 -0.104233,-0.395874 -0.0037,-0.574333 l 1.811439,-3.162518 h 28.749824 l 1.81144,3.162518 c 0.100548,0.178459 0.09923,0.39719 -0.0037,0.574333 -0.102654,0.177406 -0.291642,0.286903 -0.496686,0.288219 z m 0,0"
     id="path10"
     inkscape:connector-curvature="0"
     style="fill:#6d4122;stroke-width:0.06738281" />
  <path
     d="M 56.18598,57.174876 H 24.814017 c -0.205044,-0.0011 -0.394032,-0.110813 -0.496685,-0.287956 -0.102917,-0.177407 -0.104233,-0.395874 -0.0037,-0.574333 l 1.811439,-3.162518 h 28.749824 l 1.81144,3.162518 c 0.100548,0.178459 0.09923,0.396926 -0.0037,0.574333 -0.102654,0.177143 -0.291642,0.286903 -0.496686,0.287956 z m 0,0"
     id="path14"
     inkscape:connector-curvature="0"
     style="fill:#6d4122;stroke-width:0.06738281" />
  <path
     d="M 54.300051,34.945043 H 24.814017 c -0.205044,-0.0013 -0.394032,-0.110814 -0.496685,-0.28822 -0.102917,-0.177143 -0.104233,-0.395611 -0.0037,-0.574334 l 1.811439,-3.162517 h 26.863895 l 1.811177,3.162517 c 0.102127,0.17846 0.101337,0.397717 -0.0018,0.575387 -0.102917,0.17767 -0.292957,0.287167 -0.498265,0.287167 z m 0,0"
     id="path16"
     inkscape:connector-curvature="0"
     style="fill:#91562d;stroke-width:0.06738281" />
  <path
     d="M 54.300051,42.251291 H 24.814017 c -0.205044,-0.0013 -0.394032,-0.111077 -0.496685,-0.28822 -0.102917,-0.177406 -0.104233,-0.395874 -0.0037,-0.574333 l 1.811439,-3.162518 h 26.863895 l 1.811177,3.162518 c 0.102127,0.178196 0.101337,0.397453 -0.0018,0.575123 -0.102917,0.177669 -0.292957,0.287166 -0.498265,0.28743 z m 0,0"
     id="path20"
     inkscape:connector-curvature="0"
     style="fill:#91562d;stroke-width:0.06738281" />
  <path
     d="M 54.300051,49.881107 H 24.814017 c -0.205044,-0.0013 -0.394032,-0.110813 -0.496685,-0.288219 -0.102917,-0.177143 -0.104233,-0.395874 -0.0037,-0.574333 l 1.811439,-3.162518 h 26.863895 l 1.811177,3.162518 c 0.102127,0.178459 0.101337,0.397453 -0.0018,0.575386 -0.102913,0.177669 -0.292954,0.287166 -0.498261,0.287166 z m 0,0"
     id="path24"
     inkscape:connector-curvature="0"
     style="fill:#91562d;stroke-width:0.06738281" />
  <path
     d="M 54.300051,57.174876 H 24.814017 c -0.205044,-0.0011 -0.394032,-0.110813 -0.496685,-0.287956 -0.102917,-0.177407 -0.104233,-0.395874 -0.0037,-0.574333 l 1.811439,-3.162518 h 26.863895 l 1.811177,3.162518 c 0.102127,0.178196 0.101337,0.397453 -0.0018,0.575122 -0.102917,0.17767 -0.292957,0.287167 -0.498265,0.287167 z m 0,0"
     id="path28"
     inkscape:connector-curvature="0"
     style="fill:#91562d;stroke-width:0.06738281" />
  <path
     d="m 30.149893,28.999912 h 2.300229 v 28.174964 h -2.300229 z m 0,0"
     id="path30"
     inkscape:connector-curvature="0"
     style="fill:#607d8b;stroke-width:0.06738281" />
  <path
     d="m 48.549875,28.999912 h 2.300228 v 28.174964 h -2.300228 z m 0,0"
     id="path32"
     inkscape:connector-curvature="0"
     style="fill:#607d8b;stroke-width:0.06738281" />
  <path
     d="m 24.399981,23.825123 h 32.200034 c 0.317437,0 0.57486,0.257423 0.57486,0.57486 v 4.02507 c 0,0.317436 -0.257423,0.574859 -0.57486,0.574859 H 24.399981 c -0.317436,0 -0.574859,-0.257423 -0.574859,-0.574859 v -4.02507 c 0,-0.317437 0.257423,-0.57486 0.574859,-0.57486 z m 0,0"
     id="path34"
     inkscape:connector-curvature="0"
     style="fill:#545c60;stroke-width:0.06738281" />
  <path
     d="M 24.399981,23.825123 H 54.87491 c 0.3177,0 0.575123,0.257423 0.575123,0.57486 v 4.02507 c 0,0.317436 -0.257423,0.574859 -0.575123,0.574859 H 24.399981 c -0.317436,0 -0.574859,-0.257423 -0.574859,-0.574859 v -4.02507 c 0,-0.317437 0.257423,-0.57486 0.574859,-0.57486 z m 0,0"
     id="path36"
     inkscape:connector-curvature="0"
     style="fill:#9e9e9e;stroke-width:0.06738281" />
  <path
     d="M 56.600015,29.575035 H 24.399981 c -0.634872,-7.89e-4 -1.149456,-0.51511 -1.149982,-1.149982 v -4.02507 c 5.26e-4,-0.634873 0.51511,-1.149457 1.149982,-1.149983 h 32.200034 c 0.634873,7.89e-4 1.149193,0.51511 1.149983,1.149983 v 4.02507 c -7.88e-4,0.634872 -0.51511,1.149193 -1.149983,1.149982 z M 24.399981,24.399983 v 4.02507 h 32.200561 l -5.39e-4,-4.02507 z m 0,0"
     id="path38"
     inkscape:connector-curvature="0"
     style="stroke-width:0.06738281" />
  <path
     d="M 57.174875,35.520165 H 23.825122 c -0.205044,0 -0.394558,-0.109234 -0.497475,-0.286377 -0.102917,-0.177406 -0.103443,-0.396137 -0.0018,-0.57407 l 2.299965,-4.024807 c 0.102391,-0.179248 0.292958,-0.289798 0.499317,-0.289798 h 28.749824 c 0.20636,0 0.396928,0.11055 0.499318,0.289798 l 2.299964,4.024807 c 0.101601,0.177933 0.101075,0.396664 -0.0018,0.57407 -0.102917,0.177143 -0.292431,0.286377 -0.497475,0.286377 z M 24.815859,34.370183 H 56.183874 L 54.541418,31.495095 H 26.458579 Z m 0,0"
     id="path40"
     inkscape:connector-curvature="0"
     style="stroke-width:0.06738281" />
  <path
     d="M 57.174875,42.82615 H 23.825122 c -0.205044,0 -0.394558,-0.109234 -0.497475,-0.286377 -0.102917,-0.177406 -0.103443,-0.395874 -0.0018,-0.573807 l 2.299965,-4.025069 c 0.102391,-0.179249 0.292958,-0.2898 0.499317,-0.2898 h 28.749824 c 0.20636,0 0.396928,0.110551 0.499318,0.2898 l 2.299964,4.025069 c 0.101601,0.177933 0.101075,0.396401 -0.0018,0.573807 -0.102917,0.177143 -0.292431,0.286377 -0.497475,0.286377 z M 24.815859,41.676168 H 56.183874 L 54.541418,38.80108 H 26.458579 Z m 0,0"
     id="path44"
     inkscape:connector-curvature="0"
     style="stroke-width:0.06738281" />
  <path
     d="M 57.174875,50.45623 H 23.825122 c -0.205044,-2.69e-4 -0.394558,-0.109234 -0.497475,-0.28664 -0.102917,-0.177143 -0.103443,-0.395874 -0.0018,-0.573807 l 2.299965,-4.024806 c 0.102391,-0.179249 0.292958,-0.289799 0.499317,-0.289799 h 28.749824 c 0.20636,0 0.396928,0.11055 0.499318,0.289799 l 2.299964,4.024806 c 0.101601,0.177933 0.101075,0.396664 -0.0018,0.573807 -0.102917,0.177406 -0.292431,0.286377 -0.497475,0.28664 z M 24.815859,49.305984 H 56.183874 L 54.541418,46.43116 H 26.458579 Z m 0,0"
     id="path48"
     inkscape:connector-curvature="0"
     style="stroke-width:0.06738281" />
  <path
     d="M 57.174875,57.749999 H 23.825122 c -0.205044,0 -0.394558,-0.109234 -0.497475,-0.286377 -0.102917,-0.177406 -0.103443,-0.395874 -0.0018,-0.573807 l 2.299965,-4.02507 c 0.102391,-0.179249 0.292958,-0.289798 0.499317,-0.289798 h 28.749824 c 0.20636,0 0.396928,0.110549 0.499318,0.289798 l 2.299964,4.02507 c 0.101601,0.177933 0.101075,0.396401 -0.0018,0.573807 -0.102917,0.177143 -0.292431,0.286377 -0.497475,0.286377 z M 24.815859,56.600016 H 56.183874 L 54.541418,53.724929 H 26.458579 Z m 0,0"
     id="path52"
     inkscape:connector-curvature="0"
     style="stroke-width:0.06738281" />
  <path
     d="m 32.450122,57.749999 h -2.300229 c -0.317436,0 -0.574859,-0.257423 -0.574859,-0.575123 V 28.999912 c 0,-0.317436 0.257423,-0.574859 0.574859,-0.574859 h 2.300229 c 0.317435,0 0.574859,0.257423 0.574859,0.574859 v 28.174964 c 0,0.3177 -0.257424,0.575123 -0.574859,0.575123 z m -1.725106,-1.149983 h 1.149983 V 29.575035 h -1.149983 z m 0,0"
     id="path54"
     inkscape:connector-curvature="0"
     style="stroke-width:0.06738281" />
  <path
     d="m 50.850103,57.749999 h -2.300228 c -0.317435,0 -0.574859,-0.257423 -0.574859,-0.575123 V 28.999912 c 0,-0.317436 0.257424,-0.574859 0.574859,-0.574859 h 2.300228 c 0.317437,0 0.57486,0.257423 0.57486,0.574859 v 28.174964 c 0,0.3177 -0.257423,0.575123 -0.57486,0.575123 z m -1.725105,-1.149983 h 1.149983 V 29.575035 h -1.149983 z m 0,0"
     id="path56"
     inkscape:connector-curvature="0"
     style="stroke-width:0.06738281" />
  <path
     d="m 53.150068,43.795148 c -0.317699,0 -0.575122,-0.264656 -0.575122,-0.591282 V 29.016064 c 0,-0.326355 0.257423,-0.591011 0.575122,-0.591011 0.317436,0 0.57486,0.264656 0.57486,0.591011 v 14.187802 c 0,0.326626 -0.257424,0.591282 -0.57486,0.591282 z m 0,0"
     id="path58"
     inkscape:connector-curvature="0"
     style="stroke-width:0.06832291" />
  <path
     d="m 27.275069,27.275071 h -1.149983 c -0.317699,0 -0.575122,-0.257424 -0.575122,-0.575124 0,-0.317436 0.257423,-0.574859 0.575122,-0.574859 h 1.149983 c 0.317436,0 0.574859,0.257423 0.574859,0.574859 0,0.3177 -0.257423,0.575124 -0.574859,0.575124 z m 0,0"
     id="path60"
     inkscape:connector-curvature="0"
     style="stroke-width:0.06738281" />
  <path
     d="m 33.024981,27.275071 h -3.449947 c -0.3177,0 -0.575123,-0.257424 -0.575123,-0.575124 0,-0.317436 0.257423,-0.574859 0.575123,-0.574859 h 3.449947 c 0.3177,0 0.575123,0.257423 0.575123,0.574859 0,0.3177 -0.257423,0.575124 -0.575123,0.575124 z m 0,0"
     id="path62"
     inkscape:connector-curvature="0"
     style="stroke-width:0.06738281" />
</svg>
